# Blender 4.0.2
# www.blender.org
mtllib коробка с бумагой.mtl
o КОРОБКА_С_БУМАГОЙ
v -0.047801 1.304751 0.074765
v -1.505001 1.311651 0.660493
v 0.353325 1.304751 1.072702
v -1.103876 1.311651 1.658431
v -0.755436 1.287747 1.093891
v -0.755436 2.091733 1.093891
v -0.755436 1.287747 -0.913803
v -0.755436 2.091733 -0.913803
v 0.866119 1.287747 1.093891
v 0.866119 2.091733 1.093891
v 0.866119 1.287747 -0.913803
v 0.866119 2.091733 -0.913803
v -0.710161 2.091733 1.037835
v -0.710161 2.091733 -0.857747
v 0.820845 2.091733 -0.857747
v 0.820845 2.091733 1.037835
v -0.710161 1.355826 1.037835
v -0.710161 1.355826 -0.857747
v 0.820845 1.355826 -0.857747
v 0.820845 1.355826 1.037835
v 1.215908 2.645733 -0.913803
v 1.215908 2.645733 1.093891
v 1.182970 2.676796 -0.857747
v 1.182970 2.676796 1.037835
v -1.250206 1.812784 1.093891
v -1.250206 1.812784 -0.913803
v -1.273113 1.773732 1.037835
v -1.273113 1.773732 -0.857747
v -0.755436 1.287747 1.093891
v -0.755436 2.091733 1.093891
v -0.755436 1.287747 -0.913803
v -0.755436 2.091733 -0.913803
v 0.866119 1.287747 1.093891
v 0.866119 2.091733 1.093891
v 0.866119 1.287747 -0.913803
v 0.866119 2.091733 -0.913803
v -0.710161 2.091733 1.037835
v -0.710161 2.091733 -0.857747
v 0.820845 2.091733 -0.857747
v 0.820845 2.091733 1.037835
v -0.710161 1.355826 1.037835
v -0.710161 1.355826 -0.857747
v 0.820845 1.355826 -0.857747
v 0.820845 1.355826 1.037835
v 1.215908 2.645733 -0.913803
v 1.215908 2.645733 1.093891
v 1.182970 2.676796 -0.857747
v 1.182970 2.676796 1.037835
v -1.250206 1.812784 1.093891
v -1.250206 1.812784 -0.913803
v -1.273113 1.773732 1.037835
v -1.273113 1.773732 -0.857747
v -0.667531 1.555042 0.595240
v 0.915854 2.272550 0.595240
v -0.667531 1.555042 -0.595240
v 0.915854 2.272550 -0.595239
v 0.619401 1.460083 0.917433
v 0.619401 1.469891 -0.820971
v -0.571078 1.460083 0.917433
v -0.571078 1.469891 -0.820971
v -0.571078 1.529369 0.917824
v 0.619401 1.529369 0.917824
v 0.619401 1.539177 -0.820580
v -0.571078 1.539177 -0.820580
v 0.389770 1.502759 1.036236
v 0.813181 1.512567 -0.649817
v -0.764857 1.502759 0.746279
v -0.341447 1.512567 -0.939773
v -0.764953 1.572045 0.746659
v 0.389675 1.572045 1.036615
v 0.813086 1.581853 -0.649438
v -0.341542 1.581853 -0.939394
v 0.792914 1.571984 0.768539
v 0.417851 1.581791 -0.928924
v -0.369527 1.571984 1.025386
v -0.744591 1.581791 -0.672076
v -0.369443 1.641269 1.025768
v 0.792998 1.641269 0.768920
v 0.417935 1.651077 -0.928542
v -0.744506 1.651077 -0.671695
v 0.594323 1.614659 0.934086
v 0.643993 1.624467 -0.803609
v -0.595670 1.614659 0.900071
v -0.546000 1.624467 -0.837624
v -0.595681 1.683945 0.900462
v 0.594312 1.683945 0.934477
v 0.643982 1.693753 -0.803218
v -0.546011 1.693753 -0.837233
v 0.180510 1.304751 0.290466
v 1.580761 1.311651 1.001667
v 0.667562 1.304751 -0.668471
v 2.067814 1.311651 0.042730
v -0.419953 1.304751 -0.212640
v 0.875909 1.311651 -1.099912
v -1.027585 1.304751 -1.100088
v 0.268277 1.311651 -1.987360
vn 0.0041 1.0000 -0.0016
vn -1.0000 -0.0000 -0.0000
vn -0.0000 -0.0000 -1.0000
vn 1.0000 -0.0000 -0.0000
vn -0.0000 -0.0000 1.0000
vn -0.0000 -1.0000 -0.0000
vn -0.0000 1.0000 -0.0000
vn -0.6822 0.4264 0.5940
vn -0.4561 0.8082 0.3725
vn 0.6861 0.7275 -0.0000
vn -0.8503 0.5263 -0.0000
vn 0.8456 -0.5339 -0.0000
vn -0.6822 0.4264 -0.5940
vn 0.8626 -0.5060 -0.0000
vn -0.4918 0.8707 -0.0000
vn -0.4561 0.8082 -0.3725
vn 0.4911 -0.8711 -0.0000
vn -0.4127 0.9108 -0.0000
vn -0.0000 -1.0000 -0.0056
vn -0.0000 1.0000 0.0056
vn -0.0000 0.0056 -1.0000
vn -0.0000 -0.0056 1.0000
vn 0.0014 -1.0000 -0.0055
vn -0.0014 1.0000 0.0055
vn -0.9699 -0.0000 -0.2436
vn 0.9699 -0.0000 0.2436
vn 0.2436 0.0056 -0.9699
vn -0.2436 -0.0056 0.9699
vn -0.0012 -1.0000 -0.0055
vn 0.0012 1.0000 0.0055
vn -0.9764 -0.0000 0.2158
vn 0.9764 -0.0000 -0.2158
vn -0.2157 0.0056 -0.9764
vn 0.2157 -0.0056 0.9764
vn 0.0002 -1.0000 -0.0056
vn -0.0002 1.0000 0.0056
vn -0.9996 -0.0000 -0.0286
vn 0.9996 -0.0000 0.0286
vn 0.0286 0.0056 -0.9996
vn -0.0286 -0.0056 0.9996
vn -0.0039 1.0000 -0.0020
vn -0.0036 1.0000 0.0025
vt 0.810555 0.994544
vt 0.695218 0.994497
vt 0.695218 0.879048
vt 0.810555 0.879095
vt 0.246551 0.712608
vt 0.160537 0.712678
vt 0.160281 0.505278
vt 0.246294 0.505207
vt 0.091759 0.859084
vt 0.005456 0.858831
vt 0.005456 0.730583
vt 0.091759 0.730835
vt 0.491773 0.005456
vt 0.577284 0.005527
vt 0.577066 0.212928
vt 0.491555 0.212858
vt 0.883668 0.811482
vt 0.969971 0.811221
vt 0.969971 0.939386
vt 0.883668 0.939646
vt 0.356774 0.005456
vt 0.480642 0.038692
vt 0.480642 0.246095
vt 0.356774 0.212859
vt 0.005456 0.048769
vt 0.129228 0.015525
vt 0.125772 0.022244
vt 0.008912 0.053631
vt 0.556736 0.657106
vt 0.556494 0.461288
vt 0.635224 0.461223
vt 0.635466 0.657042
vt 0.556450 0.663805
vt 0.494914 0.670867
vt 0.491797 0.664419
vt 0.168275 0.005456
vt 0.170202 0.010788
vt 0.129228 0.222929
vt 0.005456 0.256172
vt 0.008912 0.249453
vt 0.125772 0.218066
vt 0.005456 0.298472
vt 0.122316 0.267085
vt 0.122316 0.462907
vt 0.005456 0.494294
vt 0.872755 0.671871
vt 0.872549 0.867690
vt 0.794279 0.867626
vt 0.794485 0.671806
vt 0.894609 0.341795
vt 0.894609 0.220708
vt 0.973604 0.220939
vt 0.973604 0.342026
vt 0.084451 0.869997
vt 0.084451 0.991005
vt 0.005456 0.991244
vt 0.005456 0.870236
vt 0.639680 0.220018
vt 0.639899 0.012616
vt 0.642849 0.017747
vt 0.642643 0.213567
vt 0.491555 0.468600
vt 0.556193 0.456405
vt 0.494658 0.463467
vt 0.314449 0.267085
vt 0.314230 0.474487
vt 0.309841 0.468231
vt 0.310047 0.272412
vt 0.170202 0.206610
vt 0.168275 0.212860
vt 0.298928 0.277084
vt 0.298928 0.484486
vt 0.261002 0.474488
vt 0.261002 0.267085
vt 0.343734 0.712608
vt 0.257720 0.712678
vt 0.257463 0.505278
vt 0.343477 0.505207
vt 0.969971 0.800308
vt 0.883668 0.800055
vt 0.883668 0.671806
vt 0.969971 0.672059
vt 0.491773 0.230931
vt 0.577284 0.231001
vt 0.577066 0.438402
vt 0.491555 0.438332
vt 0.886930 0.456666
vt 0.973233 0.456405
vt 0.973233 0.584570
vt 0.886930 0.584830
vt 0.356774 0.257008
vt 0.480642 0.290244
vt 0.480642 0.497646
vt 0.356774 0.464410
vt 0.181115 0.048769
vt 0.304886 0.015525
vt 0.301431 0.022244
vt 0.184571 0.053631
vt 0.070638 0.705909
vt 0.070395 0.510090
vt 0.149125 0.510026
vt 0.149368 0.705845
vt 0.070351 0.712608
vt 0.008816 0.719670
vt 0.005699 0.713221
vt 0.343933 0.005456
vt 0.345861 0.010788
vt 0.304886 0.222929
vt 0.181115 0.256172
vt 0.184571 0.249453
vt 0.301431 0.218066
vt 0.133229 0.298472
vt 0.250089 0.267085
vt 0.250089 0.462907
vt 0.133229 0.494294
vt 0.876017 0.456469
vt 0.875811 0.652289
vt 0.797540 0.652225
vt 0.797747 0.456405
vt 0.899960 0.126544
vt 0.899960 0.005456
vt 0.978955 0.005688
vt 0.978955 0.126775
vt 0.420067 0.871657
vt 0.420067 0.992665
vt 0.341072 0.992903
vt 0.341072 0.871895
vt 0.639680 0.445492
vt 0.639899 0.238091
vt 0.642849 0.243221
vt 0.642643 0.439041
vt 0.005456 0.517403
vt 0.070095 0.505207
vt 0.008559 0.512270
vt 0.329969 0.267085
vt 0.329751 0.474487
vt 0.325361 0.468231
vt 0.325568 0.272412
vt 0.345861 0.206610
vt 0.343933 0.212860
vt 0.684305 0.466403
vt 0.684305 0.673806
vt 0.646379 0.663807
vt 0.646379 0.456405
vt 0.196882 0.851870
vt 0.196882 0.723591
vt 0.315909 0.754528
vt 0.315909 0.882807
vt 0.847089 0.424695
vt 0.756150 0.400297
vt 0.756150 0.220708
vt 0.847089 0.245106
vt 0.761522 0.209427
vt 0.761522 0.029840
vt 0.852396 0.005456
vt 0.852396 0.185044
vt 0.870722 0.005462
vt 0.870722 0.185048
vt 0.863309 0.185042
vt 0.863309 0.005456
vt 0.464471 0.882143
vt 0.464471 0.702557
vt 0.471841 0.702552
vt 0.471841 0.882139
vt 0.110109 0.840737
vt 0.110109 0.934892
vt 0.102672 0.934859
vt 0.102672 0.840704
vt 0.430980 0.965781
vt 0.430980 0.871688
vt 0.438417 0.871656
vt 0.438417 0.965750
vt 0.750610 0.209795
vt 0.653762 0.174090
vt 0.653762 0.005456
vt 0.750610 0.041161
vt 0.356774 0.712907
vt 0.356774 0.544273
vt 0.453559 0.508559
vt 0.453559 0.677193
vt 0.185969 0.723727
vt 0.185969 0.889458
vt 0.178559 0.889322
vt 0.178559 0.723591
vt 0.160281 0.889549
vt 0.160281 0.723801
vt 0.167646 0.723591
vt 0.167646 0.889339
vt 0.110109 0.730609
vt 0.110109 0.829791
vt 0.102672 0.829765
vt 0.102672 0.730583
vt 0.121022 0.828575
vt 0.121022 0.730608
vt 0.128460 0.730583
vt 0.128460 0.828549
vt 0.783366 0.868135
vt 0.695218 0.857081
vt 0.695218 0.671806
vt 0.783366 0.682861
vt 0.579637 0.681780
vt 0.579637 0.867046
vt 0.491555 0.878065
vt 0.491555 0.692799
vt 0.858002 0.403678
vt 0.858002 0.220802
vt 0.865414 0.220708
vt 0.865414 0.403584
vt 0.471840 0.508716
vt 0.471840 0.691640
vt 0.464471 0.691482
vt 0.464471 0.508559
vt 0.920397 0.352976
vt 0.920397 0.437948
vt 0.912959 0.437911
vt 0.912959 0.352939
vt 0.894609 0.438912
vt 0.894609 0.352976
vt 0.902046 0.352939
vt 0.902046 0.438875
vt 0.745237 0.425210
vt 0.653762 0.399246
vt 0.653762 0.220708
vt 0.745237 0.246672
vt 0.695218 0.660894
vt 0.695218 0.482356
vt 0.786628 0.456405
vt 0.786628 0.634942
vt 0.889047 0.005476
vt 0.889047 0.183995
vt 0.881634 0.183975
vt 0.881634 0.005456
vt 0.876327 0.399252
vt 0.876327 0.220734
vt 0.883696 0.220708
vt 0.883696 0.399225
vt 0.146810 0.730614
vt 0.146810 0.825653
vt 0.139372 0.825622
vt 0.139372 0.730583
vt 0.139372 0.931439
vt 0.139372 0.836597
vt 0.146810 0.836566
vt 0.146810 0.931408
vt 0.594222 0.832603
vt 0.594222 0.684718
vt 0.684305 0.719387
vt 0.684305 0.867271
vt 0.341072 0.860744
vt 0.341072 0.742308
vt 0.453559 0.723820
vt 0.453559 0.842256
s 0
g КОРОБКА_С_БУМАГОЙ_Material.072
usemtl Material.072
f 1/1/1 2/2/1 4/3/1 3/4/1
f 53/145/18 54/146/18 56/147/18 55/148/18
f 57/149/19 59/150/19 60/151/19 58/152/19
f 62/153/20 63/154/20 64/155/20 61/156/20
f 60/157/2 59/158/2 61/159/2 64/160/2
f 57/161/4 58/162/4 63/163/4 62/164/4
f 58/165/21 60/166/21 64/167/21 63/168/21
f 59/169/22 57/170/22 62/171/22 61/172/22
f 65/173/23 67/174/23 68/175/23 66/176/23
f 70/177/24 71/178/24 72/179/24 69/180/24
f 68/181/25 67/182/25 69/183/25 72/184/25
f 65/185/26 66/186/26 71/187/26 70/188/26
f 66/189/27 68/190/27 72/191/27 71/192/27
f 67/193/28 65/194/28 70/195/28 69/196/28
f 73/197/29 75/198/29 76/199/29 74/200/29
f 78/201/30 79/202/30 80/203/30 77/204/30
f 76/205/31 75/206/31 77/207/31 80/208/31
f 73/209/32 74/210/32 79/211/32 78/212/32
f 74/213/33 76/214/33 80/215/33 79/216/33
f 75/217/34 73/218/34 78/219/34 77/220/34
f 81/221/35 83/222/35 84/223/35 82/224/35
f 86/225/36 87/226/36 88/227/36 85/228/36
f 84/229/37 83/230/37 85/231/37 88/232/37
f 81/233/38 82/234/38 87/235/38 86/236/38
f 82/237/39 84/238/39 88/239/39 87/240/39
f 83/241/40 81/242/40 86/243/40 85/244/40
f 89/245/41 90/246/41 92/247/41 91/248/41
f 93/249/42 94/250/42 96/251/42 95/252/42
g КОРОБКА_С_БУМАГОЙ_Material.063
usemtl Material.063
f 5/5/2 6/6/2 8/7/2 7/8/2
f 7/9/3 8/10/3 12/11/3 11/12/3
f 11/13/4 12/14/4 10/15/4 9/16/4
f 9/17/5 10/18/5 6/19/5 5/20/5
f 7/21/6 11/22/6 9/23/6 5/24/6
f 12/25/7 8/26/7 14/27/7 15/28/7
f 16/29/2 15/30/2 19/31/2 20/32/2
f 16/29/8 10/33/8 22/34/8 24/35/8
f 14/27/9 8/26/9 26/36/9 28/37/9
f 6/38/7 10/39/7 16/40/7 13/41/7
f 19/42/7 18/43/7 17/44/7 20/45/7
f 14/46/4 13/47/4 17/48/4 18/49/4
f 13/50/3 16/51/3 20/52/3 17/53/3
f 15/54/5 14/55/5 18/56/5 19/57/5
f 22/58/10 21/59/10 23/60/10 24/61/10
f 15/30/11 16/29/11 24/35/11 23/62/11
f 10/15/12 12/14/12 21/59/12 22/58/12
f 12/63/13 15/30/13 23/62/13 21/64/13
f 26/65/14 25/66/14 27/67/14 28/68/14
f 13/41/15 14/27/15 28/37/15 27/69/15
f 6/38/16 13/41/16 27/69/16 25/70/16
f 8/71/17 6/72/17 25/73/17 26/74/17
f 29/75/2 30/76/2 32/77/2 31/78/2
f 31/79/3 32/80/3 36/81/3 35/82/3
f 35/83/4 36/84/4 34/85/4 33/86/4
f 33/87/5 34/88/5 30/89/5 29/90/5
f 31/91/6 35/92/6 33/93/6 29/94/6
f 36/95/7 32/96/7 38/97/7 39/98/7
f 40/99/2 39/100/2 43/101/2 44/102/2
f 40/99/8 34/103/8 46/104/8 48/105/8
f 38/97/9 32/96/9 50/106/9 52/107/9
f 30/108/7 34/109/7 40/110/7 37/111/7
f 43/112/7 42/113/7 41/114/7 44/115/7
f 38/116/4 37/117/4 41/118/4 42/119/4
f 37/120/3 40/121/3 44/122/3 41/123/3
f 39/124/5 38/125/5 42/126/5 43/127/5
f 46/128/10 45/129/10 47/130/10 48/131/10
f 39/100/11 40/99/11 48/105/11 47/132/11
f 34/85/12 36/84/12 45/129/12 46/128/12
f 36/133/13 39/100/13 47/132/13 45/134/13
f 50/135/14 49/136/14 51/137/14 52/138/14
f 37/111/15 38/97/15 52/107/15 51/139/15
f 30/108/16 37/111/16 51/139/16 49/140/16
f 32/141/17 30/142/17 49/143/17 50/144/17
