# Blender 4.0.2
# www.blender.org
mtllib коробка без бумаги.mtl
o Cube.043
v -0.755436 1.287747 1.093891
v -0.755436 2.091733 1.093891
v -0.755436 1.287747 -0.913803
v -0.755436 2.091733 -0.913803
v 0.866119 1.287747 1.093891
v 0.866119 2.091733 1.093891
v 0.866119 1.287747 -0.913803
v 0.866119 2.091733 -0.913803
v -0.710161 2.091733 1.037835
v -0.710161 2.091733 -0.857747
v 0.820845 2.091733 -0.857747
v 0.820845 2.091733 1.037835
v -0.710161 1.355826 1.037835
v -0.710161 1.355826 -0.857747
v 0.820845 1.355826 -0.857747
v 0.820845 1.355826 1.037835
v 1.215908 2.645733 -0.913803
v 1.215908 2.645733 1.093891
v 1.182970 2.676796 -0.857747
v 1.182971 2.676796 1.037835
v -1.250206 1.812784 1.093891
v -1.250206 1.812784 -0.913803
v -1.273113 1.773732 1.037835
v -1.273113 1.773732 -0.857747
v -0.755436 1.287747 1.093891
v -0.755436 2.091733 1.093891
v -0.755436 1.287747 -0.913803
v -0.755436 2.091733 -0.913803
v 0.866119 1.287747 1.093891
v 0.866119 2.091733 1.093891
v 0.866119 1.287747 -0.913803
v 0.866119 2.091733 -0.913803
v -0.710161 2.091733 1.037835
v -0.710161 2.091733 -0.857747
v 0.820845 2.091733 -0.857747
v 0.820845 2.091733 1.037835
v -0.710161 1.355826 1.037835
v -0.710161 1.355826 -0.857747
v 0.820845 1.355826 -0.857747
v 0.820845 1.355826 1.037835
v 1.215908 2.645733 -0.913803
v 1.215908 2.645733 1.093891
v 1.182970 2.676796 -0.857747
v 1.182971 2.676796 1.037835
v -1.250206 1.812784 1.093891
v -1.250206 1.812784 -0.913803
v -1.273113 1.773732 1.037835
v -1.273113 1.773732 -0.857747
vn -1.0000 -0.0000 -0.0000
vn -0.0000 -0.0000 -1.0000
vn 1.0000 -0.0000 -0.0000
vn -0.0000 -0.0000 1.0000
vn -0.0000 -1.0000 -0.0000
vn -0.0000 1.0000 -0.0000
vn -0.6822 0.4264 0.5940
vn -0.4561 0.8082 0.3725
vn 0.6861 0.7275 -0.0000
vn -0.8503 0.5263 -0.0000
vn 0.8456 -0.5339 -0.0000
vn -0.6822 0.4264 -0.5940
vn 0.8626 -0.5060 -0.0000
vn -0.4918 0.8707 -0.0000
vn -0.4561 0.8082 -0.3725
vn 0.4911 -0.8711 -0.0000
vt 0.711931 0.643216
vt 0.570783 0.643216
vt 0.570783 0.326223
vt 0.711931 0.326223
vt 0.144224 0.748064
vt 0.003076 0.748064
vt 0.003076 0.431071
vt 0.144224 0.431071
vt 0.564631 0.643216
vt 0.423483 0.643216
vt 0.423483 0.326223
vt 0.564631 0.326223
vt 0.291525 0.748064
vt 0.150377 0.748064
vt 0.150377 0.431071
vt 0.291525 0.431071
vt 0.326223 0.003076
vt 0.634551 0.003076
vt 0.634551 0.320070
vt 0.326223 0.320070
vt 0.320070 0.003076
vt 0.320070 0.317949
vt 0.311219 0.309158
vt 0.311219 0.011868
vt 0.732379 0.948661
vt 0.732379 0.649369
vt 0.861575 0.649369
vt 0.861575 0.948661
vt 0.306074 0.555817
vt 0.298786 0.550794
vt 0.297677 0.431907
vt 0.306074 0.431071
vt 0.320070 0.419679
vt 0.311219 0.424918
vt 0.003076 0.317949
vt 0.003076 0.003076
vt 0.011927 0.011868
vt 0.011927 0.309158
vt 0.326223 0.649369
vt 0.623513 0.649369
vt 0.623513 0.948661
vt 0.326223 0.948661
vt 0.743012 0.625515
vt 0.743012 0.326223
vt 0.872207 0.326223
vt 0.872207 0.625515
vt 0.752306 0.302369
vt 0.752306 0.003076
vt 0.881502 0.003076
vt 0.881502 0.302369
vt 0.867728 0.948661
vt 0.867728 0.649369
vt 0.996924 0.649369
vt 0.996924 0.948661
vt 0.731093 0.643216
vt 0.731093 0.326223
vt 0.736859 0.335073
vt 0.736859 0.634365
vt 0.629666 0.948661
vt 0.629666 0.649369
vt 0.326223 0.643216
vt 0.326223 0.326223
vt 0.304965 0.681692
vt 0.297677 0.686715
vt 0.297677 0.561969
vt 0.306074 0.562806
vt 0.724940 0.326223
vt 0.724940 0.643216
vt 0.718084 0.634365
vt 0.718084 0.335073
vt 0.011927 0.424918
vt 0.003076 0.419679
vt 0.746154 0.003076
vt 0.746153 0.320070
vt 0.640704 0.320070
vt 0.640704 0.003076
s 0
g Cube.043_Material.063
usemtl Material.063
f 1/1/1 2/2/1 4/3/1 3/4/1
f 3/5/2 4/6/2 8/7/2 7/8/2
f 7/9/3 8/10/3 6/11/3 5/12/3
f 5/13/4 6/14/4 2/15/4 1/16/4
f 3/17/5 7/18/5 5/19/5 1/20/5
f 8/21/6 4/22/6 10/23/6 11/24/6
f 12/25/1 11/26/1 15/27/1 16/28/1
f 12/29/7 6/30/7 18/31/7 20/32/7
f 10/23/8 4/22/8 22/33/8 24/34/8
f 2/35/6 6/36/6 12/37/6 9/38/6
f 15/39/6 14/40/6 13/41/6 16/42/6
f 10/43/3 9/44/3 13/45/3 14/46/3
f 9/47/2 12/48/2 16/49/2 13/50/2
f 11/51/4 10/52/4 14/53/4 15/54/4
f 18/55/9 17/56/9 19/57/9 20/58/9
f 11/26/10 12/25/10 20/59/10 19/60/10
f 6/11/11 8/10/11 17/61/11 18/62/11
f 8/63/12 11/64/12 19/65/12 17/66/12
f 22/67/13 21/68/13 23/69/13 24/70/13
f 9/38/14 10/23/14 24/34/14 23/71/14
f 2/35/15 9/38/15 23/71/15 21/72/15
f 4/73/16 2/74/16 21/75/16 22/76/16
f 25/1/1 26/2/1 28/3/1 27/4/1
f 27/5/2 28/6/2 32/7/2 31/8/2
f 31/9/3 32/10/3 30/11/3 29/12/3
f 29/13/4 30/14/4 26/15/4 25/16/4
f 27/17/5 31/18/5 29/19/5 25/20/5
f 32/21/6 28/22/6 34/23/6 35/24/6
f 36/25/1 35/26/1 39/27/1 40/28/1
f 36/29/7 30/30/7 42/31/7 44/32/7
f 34/23/8 28/22/8 46/33/8 48/34/8
f 26/35/6 30/36/6 36/37/6 33/38/6
f 39/39/6 38/40/6 37/41/6 40/42/6
f 34/43/3 33/44/3 37/45/3 38/46/3
f 33/47/2 36/48/2 40/49/2 37/50/2
f 35/51/4 34/52/4 38/53/4 39/54/4
f 42/55/9 41/56/9 43/57/9 44/58/9
f 35/26/10 36/25/10 44/59/10 43/60/10
f 30/11/11 32/10/11 41/61/11 42/62/11
f 32/63/12 35/64/12 43/65/12 41/66/12
f 46/67/13 45/68/13 47/69/13 48/70/13
f 33/38/14 34/23/14 48/34/14 47/71/14
f 26/35/15 33/38/15 47/71/15 45/72/15
f 28/73/16 26/74/16 45/75/16 46/76/16
